<svg width="546" height="312" viewBox="0 0 546 312" fill="none" xmlns="http://www.w3.org/2000/svg">
<g filter="url(#filter0_dd_2207_13)">
<mask id="path-1-outside-1_2207_13" maskUnits="userSpaceOnUse" x="4" y="0" width="538" height="304" fill="black">
<rect fill="white" x="4" width="538" height="304"/>
<path fill-rule="evenodd" clip-rule="evenodd" d="M5 48.3269V303H540.531V1H38.0909L5 48.3269Z"/>
</mask>
<path d="M5 48.3269L4.18046 47.7539L4 48.012V48.3269H5ZM5 303H4V304H5V303ZM540.531 303V304H541.531V303H540.531ZM540.531 1H541.531V0H540.531V1ZM38.0909 1V0H37.5699L37.2714 0.426979L38.0909 1ZM4 48.3269V303H6V48.3269H4ZM5 304H540.531V302H5V304ZM541.531 303V1H539.531V303H541.531ZM540.531 0H38.0909V2H540.531V0ZM37.2714 0.426979L4.18046 47.7539L5.81954 48.9L38.9104 1.57302L37.2714 0.426979Z" fill="white" fill-opacity="0.5" mask="url(#path-1-outside-1_2207_13)"/>
<path d="M179.051 81L178.872 110.561M178.88 225.037L178.701 254.598M376.369 225.051L376.19 254.612" stroke="#00FFFF" stroke-opacity="0.7" stroke-width="3" stroke-dasharray="3 3"/>
<path d="M377.179 79L377 111" stroke="#00FFFF" stroke-opacity="0.7" stroke-width="3" stroke-dasharray="3 3"/>
<path d="M240.068 197V176H244.028V197H240.068ZM247.978 197V176H255.508L259.678 194.3H260.218V176H264.118V197H256.588L252.418 178.7H251.878V197H247.978ZM267.476 197V193.52H270.236V179.48H267.476V176H276.116C278.936 176 281.076 176.72 282.536 178.16C284.016 179.58 284.756 181.7 284.756 184.52V188.48C284.756 191.3 284.016 193.43 282.536 194.87C281.076 196.29 278.936 197 276.116 197H267.476ZM274.196 193.4H276.176C277.776 193.4 278.946 192.98 279.686 192.14C280.426 191.3 280.796 190.12 280.796 188.6V184.4C280.796 182.86 280.426 181.68 279.686 180.86C278.946 180.02 277.776 179.6 276.176 179.6H274.196V193.4ZM288.056 197V176H292.016V197H288.056ZM294.526 197L300.046 176H306.946L312.466 197H308.386L307.246 192.38H299.746L298.606 197H294.526ZM300.676 188.72H306.316L303.766 178.49H303.226L300.676 188.72Z" fill="white"/>
<path d="M258.717 50.42C256.997 50.42 255.517 50.11 254.277 49.49C253.057 48.85 252.117 47.95 251.457 46.79C250.817 45.61 250.497 44.22 250.497 42.62V29H254.457V42.74C254.457 44.02 254.817 45.03 255.537 45.77C256.277 46.51 257.337 46.88 258.717 46.88C260.097 46.88 261.147 46.51 261.867 45.77C262.607 45.03 262.977 44.02 262.977 42.74V29H266.937V42.62C266.937 44.22 266.607 45.61 265.947 46.79C265.307 47.95 264.367 48.85 263.127 49.49C261.907 50.11 260.437 50.42 258.717 50.42ZM278.063 50.42C276.443 50.42 275.013 50.13 273.773 49.55C272.533 48.97 271.563 48.14 270.863 47.06C270.163 45.98 269.813 44.68 269.813 43.16V42.32H273.713V43.16C273.713 44.42 274.103 45.37 274.883 46.01C275.663 46.63 276.723 46.94 278.063 46.94C279.423 46.94 280.433 46.67 281.093 46.13C281.773 45.59 282.113 44.9 282.113 44.06C282.113 43.48 281.943 43.01 281.603 42.65C281.283 42.29 280.803 42 280.163 41.78C279.543 41.54 278.783 41.32 277.883 41.12L277.193 40.97C275.753 40.65 274.513 40.25 273.473 39.77C272.453 39.27 271.663 38.62 271.103 37.82C270.563 37.02 270.293 35.98 270.293 34.7C270.293 33.42 270.593 32.33 271.193 31.43C271.813 30.51 272.673 29.81 273.773 29.33C274.893 28.83 276.203 28.58 277.703 28.58C279.203 28.58 280.533 28.84 281.693 29.36C282.873 29.86 283.793 30.62 284.453 31.64C285.133 32.64 285.473 33.9 285.473 35.42V36.32H281.573V35.42C281.573 34.62 281.413 33.98 281.093 33.5C280.793 33 280.353 32.64 279.773 32.42C279.193 32.18 278.503 32.06 277.703 32.06C276.503 32.06 275.613 32.29 275.033 32.75C274.473 33.19 274.193 33.8 274.193 34.58C274.193 35.1 274.323 35.54 274.583 35.9C274.863 36.26 275.273 36.56 275.813 36.8C276.353 37.04 277.043 37.25 277.883 37.43L278.573 37.58C280.073 37.9 281.373 38.31 282.473 38.81C283.593 39.31 284.463 39.97 285.083 40.79C285.703 41.61 286.013 42.66 286.013 43.94C286.013 45.22 285.683 46.35 285.023 47.33C284.383 48.29 283.463 49.05 282.263 49.61C281.083 50.15 279.683 50.42 278.063 50.42ZM287.526 50L293.046 29H299.946L305.466 50H301.386L300.246 45.38H292.746L291.606 50H287.526ZM293.676 41.72H299.316L296.766 31.49H296.226L293.676 41.72Z" fill="white"/>
<path d="M40.3627 103.252C38.8027 103.252 37.5667 102.82 36.6547 101.956C35.7427 101.08 35.2867 99.832 35.2867 98.212V95.188C35.2867 93.568 35.7427 92.326 36.6547 91.462C37.5667 90.586 38.8027 90.148 40.3627 90.148C41.9107 90.148 43.1047 90.574 43.9447 91.426C44.7967 92.266 45.2227 93.424 45.2227 94.9V95.008H42.8827V94.828C42.8827 94.084 42.6727 93.472 42.2527 92.992C41.8447 92.512 41.2147 92.272 40.3627 92.272C39.5227 92.272 38.8627 92.53 38.3827 93.046C37.9027 93.562 37.6627 94.264 37.6627 95.152V98.248C37.6627 99.124 37.9027 99.826 38.3827 100.354C38.8627 100.87 39.5227 101.128 40.3627 101.128C41.2147 101.128 41.8447 100.888 42.2527 100.408C42.6727 99.916 42.8827 99.304 42.8827 98.572V98.248H45.2227V98.5C45.2227 99.976 44.7967 101.14 43.9447 101.992C43.1047 102.832 41.9107 103.252 40.3627 103.252ZM46.1541 103L49.4661 90.4H53.6061L56.9181 103H54.4701L53.7861 100.228H49.2861L48.6021 103H46.1541ZM49.8441 98.032H53.2281L51.6981 91.894H51.3741L49.8441 98.032ZM58.4263 103V90.4H60.8023V100.84H66.5623V103H58.4263ZM68.1821 103V90.4H70.5581V103H68.1821ZM72.9282 103V90.4H80.8482V92.56H75.3042V95.602H80.4162V97.762H75.3042V103H72.9282ZM87.334 103.252C85.75 103.252 84.49 102.82 83.554 101.956C82.618 101.08 82.15 99.832 82.15 98.212V95.188C82.15 93.568 82.618 92.326 83.554 91.462C84.49 90.586 85.75 90.148 87.334 90.148C88.918 90.148 90.178 90.586 91.114 91.462C92.05 92.326 92.518 93.568 92.518 95.188V98.212C92.518 99.832 92.05 101.08 91.114 101.956C90.178 102.82 88.918 103.252 87.334 103.252ZM87.334 101.128C88.222 101.128 88.912 100.87 89.404 100.354C89.896 99.838 90.142 99.148 90.142 98.284V95.116C90.142 94.252 89.896 93.562 89.404 93.046C88.912 92.53 88.222 92.272 87.334 92.272C86.458 92.272 85.768 92.53 85.264 93.046C84.772 93.562 84.526 94.252 84.526 95.116V98.284C84.526 99.148 84.772 99.838 85.264 100.354C85.768 100.87 86.458 101.128 87.334 101.128ZM94.6021 103V90.4H100.074C100.866 90.4 101.556 90.538 102.144 90.814C102.732 91.09 103.188 91.48 103.512 91.984C103.836 92.488 103.998 93.082 103.998 93.766V93.982C103.998 94.738 103.818 95.35 103.458 95.818C103.098 96.286 102.654 96.628 102.126 96.844V97.168C102.606 97.192 102.978 97.36 103.242 97.672C103.506 97.972 103.638 98.374 103.638 98.878V103H101.262V99.22C101.262 98.932 101.184 98.698 101.028 98.518C100.884 98.338 100.638 98.248 100.29 98.248H96.9781V103H94.6021ZM96.9781 96.088H99.8221C100.386 96.088 100.824 95.938 101.136 95.638C101.46 95.326 101.622 94.918 101.622 94.414V94.234C101.622 93.73 101.466 93.328 101.154 93.028C100.842 92.716 100.398 92.56 99.8221 92.56H96.9781V96.088ZM105.975 103V90.4H110.493L112.995 101.38H113.319V90.4H115.659V103H111.141L108.639 92.02H108.315V103H105.975ZM118.034 103V90.4H120.41V103H118.034ZM121.916 103L125.228 90.4H129.368L132.68 103H130.232L129.548 100.228H125.048L124.364 103H121.916ZM125.606 98.032H128.99L127.46 91.894H127.136L125.606 98.032Z" fill="white"/>
<path d="M45.3462 246V233.4H49.7562L51.9342 244.38H52.2582L54.4362 233.4H58.8462V246H56.5422V235.146H56.2182L54.0582 246H50.1342L47.9742 235.146H47.6502V246H45.3462ZM66.0793 246.252C65.0473 246.252 64.1593 246.066 63.4153 245.694C62.6833 245.31 62.1193 244.77 61.7233 244.074C61.3393 243.366 61.1473 242.532 61.1473 241.572V233.4H63.5233V241.644C63.5233 242.412 63.7393 243.018 64.1713 243.462C64.6153 243.906 65.2513 244.128 66.0793 244.128C66.9073 244.128 67.5373 243.906 67.9693 243.462C68.4133 243.018 68.6353 242.412 68.6353 241.644V233.4H71.0113V241.572C71.0113 242.532 70.8133 243.366 70.4173 244.074C70.0333 244.77 69.4693 245.31 68.7253 245.694C67.9933 246.066 67.1113 246.252 66.0793 246.252ZM73.313 246V233.4H77.723L79.901 244.38H80.225L82.403 233.4H86.813V246H84.509V235.146H84.185L82.025 246H78.101L75.941 235.146H75.617V246H73.313ZM88.826 246V243.912H90.482V235.488H88.826V233.4H95.306C96.074 233.4 96.74 233.532 97.304 233.796C97.88 234.048 98.324 234.414 98.636 234.894C98.96 235.362 99.122 235.926 99.122 236.586V236.766C99.122 237.342 99.014 237.816 98.798 238.188C98.582 238.548 98.324 238.83 98.024 239.034C97.736 239.226 97.46 239.364 97.196 239.448V239.772C97.46 239.844 97.748 239.982 98.06 240.186C98.372 240.378 98.636 240.66 98.852 241.032C99.08 241.404 99.194 241.89 99.194 242.49V242.67C99.194 243.366 99.032 243.966 98.708 244.47C98.384 244.962 97.934 245.34 97.358 245.604C96.794 245.868 96.134 246 95.378 246H88.826ZM92.858 243.84H95.09C95.606 243.84 96.02 243.714 96.332 243.462C96.656 243.21 96.818 242.85 96.818 242.382V242.202C96.818 241.734 96.662 241.374 96.35 241.122C96.038 240.87 95.618 240.744 95.09 240.744H92.858V243.84ZM92.858 238.584H95.054C95.546 238.584 95.948 238.458 96.26 238.206C96.584 237.954 96.746 237.606 96.746 237.162V236.982C96.746 236.526 96.59 236.178 96.278 235.938C95.966 235.686 95.558 235.56 95.054 235.56H92.858V238.584ZM100.17 246L103.482 233.4H107.622L110.934 246H108.486L107.802 243.228H103.302L102.618 246H100.17ZM103.86 241.032H107.244L105.714 234.894H105.39L103.86 241.032ZM112.442 246V233.4H114.818V246H112.442Z" fill="white"/>
<path d="M255.206 246V233.4H260.39C261.182 233.4 261.878 233.562 262.478 233.886C263.09 234.198 263.564 234.642 263.9 235.218C264.248 235.794 264.422 236.478 264.422 237.27V237.522C264.422 238.302 264.242 238.986 263.882 239.574C263.534 240.15 263.054 240.6 262.442 240.924C261.842 241.236 261.158 241.392 260.39 241.392H257.582V246H255.206ZM257.582 239.232H260.156C260.72 239.232 261.176 239.076 261.524 238.764C261.872 238.452 262.046 238.026 262.046 237.486V237.306C262.046 236.766 261.872 236.34 261.524 236.028C261.176 235.716 260.72 235.56 260.156 235.56H257.582V239.232ZM270.929 246.252C269.897 246.252 269.009 246.066 268.265 245.694C267.533 245.31 266.969 244.77 266.573 244.074C266.189 243.366 265.997 242.532 265.997 241.572V233.4H268.373V241.644C268.373 242.412 268.589 243.018 269.021 243.462C269.465 243.906 270.101 244.128 270.929 244.128C271.757 244.128 272.387 243.906 272.819 243.462C273.263 243.018 273.485 242.412 273.485 241.644V233.4H275.861V241.572C275.861 242.532 275.663 243.366 275.267 244.074C274.883 244.77 274.319 245.31 273.575 245.694C272.843 246.066 271.961 246.252 270.929 246.252ZM278.163 246V233.4H282.681L285.183 244.38H285.507V233.4H287.847V246H283.329L280.827 235.02H280.503V246H278.163ZM290.221 246V233.4H298.321V235.56H292.597V238.566H297.817V240.726H292.597V243.84H298.429V246H290.221Z" fill="white"/>
<path d="M410.928 246V233.4H415.446L417.948 244.38H418.272V233.4H420.612V246H416.094L413.592 235.02H413.268V246H410.928ZM427.883 246.252C426.299 246.252 425.039 245.82 424.103 244.956C423.167 244.08 422.699 242.832 422.699 241.212V238.188C422.699 236.568 423.167 235.326 424.103 234.462C425.039 233.586 426.299 233.148 427.883 233.148C429.467 233.148 430.727 233.586 431.663 234.462C432.599 235.326 433.067 236.568 433.067 238.188V241.212C433.067 242.832 432.599 244.08 431.663 244.956C430.727 245.82 429.467 246.252 427.883 246.252ZM427.883 244.128C428.771 244.128 429.461 243.87 429.953 243.354C430.445 242.838 430.691 242.148 430.691 241.284V238.116C430.691 237.252 430.445 236.562 429.953 236.046C429.461 235.53 428.771 235.272 427.883 235.272C427.007 235.272 426.317 235.53 425.813 236.046C425.321 236.562 425.075 237.252 425.075 238.116V241.284C425.075 242.148 425.321 242.838 425.813 243.354C426.317 243.87 427.007 244.128 427.883 244.128ZM435.151 246V233.4H437.527V246H435.151ZM439.537 246V243.912H441.193V235.488H439.537V233.4H444.721C446.413 233.4 447.697 233.832 448.573 234.696C449.461 235.548 449.905 236.82 449.905 238.512V240.888C449.905 242.58 449.461 243.858 448.573 244.722C447.697 245.574 446.413 246 444.721 246H439.537ZM443.569 243.84H444.757C445.717 243.84 446.419 243.588 446.863 243.084C447.307 242.58 447.529 241.872 447.529 240.96V238.44C447.529 237.516 447.307 236.808 446.863 236.316C446.419 235.812 445.717 235.56 444.757 235.56H443.569V243.84ZM450.916 246L454.228 233.4H458.368L461.68 246H459.232L458.548 243.228H454.048L453.364 246H450.916ZM454.606 241.032H457.99L456.46 234.894H456.136L454.606 241.032Z" fill="white"/>
<path d="M411.174 101V88.4H415.692L418.194 99.38H418.518V88.4H420.858V101H416.34L413.838 90.02H413.514V101H411.174ZM423.233 101V88.4H431.333V90.56H425.609V93.566H430.829V95.726H425.609V98.84H431.441V101H423.233ZM434.208 101L432.552 88.4H434.91L436.134 99.344H436.458L438.042 88.4H442.146L443.73 99.344H444.054L445.278 88.4H447.636L445.98 101H441.876L440.256 89.804H439.932L438.312 101H434.208ZM456.901 101V96.662L452.617 88.4H455.263L457.927 93.8H458.251L460.915 88.4H463.561L459.277 96.662V101H456.901ZM469.279 101.252C467.695 101.252 466.435 100.82 465.499 99.956C464.563 99.08 464.095 97.832 464.095 96.212V93.188C464.095 91.568 464.563 90.326 465.499 89.462C466.435 88.586 467.695 88.148 469.279 88.148C470.863 88.148 472.123 88.586 473.059 89.462C473.995 90.326 474.463 91.568 474.463 93.188V96.212C474.463 97.832 473.995 99.08 473.059 99.956C472.123 100.82 470.863 101.252 469.279 101.252ZM469.279 99.128C470.167 99.128 470.857 98.87 471.349 98.354C471.841 97.838 472.087 97.148 472.087 96.284V93.116C472.087 92.252 471.841 91.562 471.349 91.046C470.857 90.53 470.167 90.272 469.279 90.272C468.403 90.272 467.713 90.53 467.209 91.046C466.717 91.562 466.471 92.252 466.471 93.116V96.284C466.471 97.148 466.717 97.838 467.209 98.354C467.713 98.87 468.403 99.128 469.279 99.128ZM476.547 101V88.4H482.019C482.811 88.4 483.501 88.538 484.089 88.814C484.677 89.09 485.133 89.48 485.457 89.984C485.781 90.488 485.943 91.082 485.943 91.766V91.982C485.943 92.738 485.763 93.35 485.403 93.818C485.043 94.286 484.599 94.628 484.071 94.844V95.168C484.551 95.192 484.923 95.36 485.187 95.672C485.451 95.972 485.583 96.374 485.583 96.878V101H483.207V97.22C483.207 96.932 483.129 96.698 482.973 96.518C482.829 96.338 482.583 96.248 482.235 96.248H478.923V101H476.547ZM478.923 94.088H481.767C482.331 94.088 482.769 93.938 483.081 93.638C483.405 93.326 483.567 92.918 483.567 92.414V92.234C483.567 91.73 483.411 91.328 483.099 91.028C482.787 90.716 482.343 90.56 481.767 90.56H478.923V94.088ZM487.92 101V88.4H490.296V93.404H490.62L494.706 88.4H497.748L492.492 94.61L497.928 101H494.796L490.62 95.888H490.296V101H487.92Z" fill="white"/>
<path d="M243.006 101L246.318 88.4H250.458L253.77 101H251.322L250.638 98.228H246.138L245.454 101H243.006ZM246.696 96.032H250.08L248.55 89.894H248.226L246.696 96.032ZM255.278 101V88.4H260.75C261.542 88.4 262.232 88.538 262.82 88.814C263.408 89.09 263.864 89.48 264.188 89.984C264.512 90.488 264.674 91.082 264.674 91.766V91.982C264.674 92.738 264.494 93.35 264.134 93.818C263.774 94.286 263.33 94.628 262.802 94.844V95.168C263.282 95.192 263.654 95.36 263.918 95.672C264.182 95.972 264.314 96.374 264.314 96.878V101H261.938V97.22C261.938 96.932 261.86 96.698 261.704 96.518C261.56 96.338 261.314 96.248 260.966 96.248H257.654V101H255.278ZM257.654 94.088H260.498C261.062 94.088 261.5 93.938 261.812 93.638C262.136 93.326 262.298 92.918 262.298 92.414V92.234C262.298 91.73 262.142 91.328 261.83 91.028C261.518 90.716 261.074 90.56 260.498 90.56H257.654V94.088ZM266.651 101V88.4H269.027V101H266.651ZM271.037 101V97.976L277.265 90.812V90.524H271.217V88.4H279.749V91.424L273.521 98.588V98.876H279.785V101H271.037ZM286.453 101.252C284.869 101.252 283.609 100.82 282.673 99.956C281.737 99.08 281.269 97.832 281.269 96.212V93.188C281.269 91.568 281.737 90.326 282.673 89.462C283.609 88.586 284.869 88.148 286.453 88.148C288.037 88.148 289.297 88.586 290.233 89.462C291.169 90.326 291.637 91.568 291.637 93.188V96.212C291.637 97.832 291.169 99.08 290.233 99.956C289.297 100.82 288.037 101.252 286.453 101.252ZM286.453 99.128C287.341 99.128 288.031 98.87 288.523 98.354C289.015 97.838 289.261 97.148 289.261 96.284V93.116C289.261 92.252 289.015 91.562 288.523 91.046C288.031 90.53 287.341 90.272 286.453 90.272C285.577 90.272 284.887 90.53 284.383 91.046C283.891 91.562 283.645 92.252 283.645 93.116V96.284C283.645 97.148 283.891 97.838 284.383 98.354C284.887 98.87 285.577 99.128 286.453 99.128ZM293.721 101V88.4H298.239L300.741 99.38H301.065V88.4H303.405V101H298.887L296.385 90.02H296.061V101H293.721ZM304.916 101L308.228 88.4H312.368L315.68 101H313.232L312.548 98.228H308.048L307.364 101H304.916ZM308.606 96.032H311.99L310.46 89.894H310.136L308.606 96.032Z" fill="white"/>
</g>
<defs>
<filter id="filter0_dd_2207_13" x="0" y="0" width="545.531" height="312" filterUnits="userSpaceOnUse" color-interpolation-filters="sRGB">
<feFlood flood-opacity="0" result="BackgroundImageFix"/>
<feColorMatrix in="SourceAlpha" type="matrix" values="0 0 0 0 0 0 0 0 0 0 0 0 0 0 0 0 0 0 127 0" result="hardAlpha"/>
<feOffset dy="4"/>
<feGaussianBlur stdDeviation="2"/>
<feComposite in2="hardAlpha" operator="out"/>
<feColorMatrix type="matrix" values="0 0 0 0 0 0 0 0 0 0 0 0 0 0 0 0 0 0 0.25 0"/>
<feBlend mode="normal" in2="BackgroundImageFix" result="effect1_dropShadow_2207_13"/>
<feColorMatrix in="SourceAlpha" type="matrix" values="0 0 0 0 0 0 0 0 0 0 0 0 0 0 0 0 0 0 127 0" result="hardAlpha"/>
<feOffset dy="4"/>
<feGaussianBlur stdDeviation="2"/>
<feComposite in2="hardAlpha" operator="out"/>
<feColorMatrix type="matrix" values="0 0 0 0 0 0 0 0 0 0 0 0 0 0 0 0 0 0 0.25 0"/>
<feBlend mode="normal" in2="effect1_dropShadow_2207_13" result="effect2_dropShadow_2207_13"/>
<feBlend mode="normal" in="SourceGraphic" in2="effect2_dropShadow_2207_13" result="shape"/>
</filter>
</defs>
</svg>
