<svg width="33" height="32" viewBox="0 0 33 32" fill="none" xmlns="http://www.w3.org/2000/svg">
<circle cx="16.4688" cy="16" r="16" fill="#110F0F"/>
<path d="M25.5661 12.6667C24.9245 12.9583 24.2328 13.15 23.5161 13.2417C24.2495 12.8 24.8161 12.1 25.0828 11.2583C24.3911 11.675 23.6245 11.9667 22.8161 12.1333C22.1578 11.4167 21.2328 11 20.1828 11C18.2245 11 16.6245 12.6 16.6245 14.575C16.6245 14.8583 16.6578 15.1333 16.7161 15.3917C13.7495 15.2417 11.1078 13.8167 9.34948 11.6583C9.04115 12.1833 8.86615 12.8 8.86615 13.45C8.86615 14.6917 9.49115 15.7917 10.4578 16.4167C9.86615 16.4167 9.31615 16.25 8.83281 16V16.025C8.83281 17.7583 10.0661 19.2083 11.6995 19.5333C11.1751 19.6768 10.6246 19.6968 10.0911 19.5917C10.3175 20.3021 10.7608 20.9237 11.3587 21.3691C11.9566 21.8145 12.679 22.0614 13.4245 22.075C12.1608 23.0754 10.5945 23.6161 8.98281 23.6083C8.69948 23.6083 8.41615 23.5917 8.13281 23.5583C9.71615 24.575 11.5995 25.1667 13.6161 25.1667C20.1828 25.1667 23.7911 19.7167 23.7911 14.9917C23.7911 14.8333 23.7911 14.6833 23.7828 14.525C24.4828 14.025 25.0828 13.3917 25.5661 12.6667Z" fill="white"/>
</svg>
